<svg
              class="cursor-pointer"
              xmlns="http://www.w3.org/2000/svg"
              width="22"
              height="22"
              viewBox="0 0 22 22"
              fill="none"
            >
              <g id="Attach 01">
                <g id="Vector">
                  <path
                    d="M14.9332 7.79175L8.77551 14.323C8.23854 14.8925 7.36794 14.8926 6.83097 14.323C6.294 13.7535 6.294 12.83 6.83097 12.2605L12.9887 5.72925M12.3423 6.41676L13.6387 5.04176C14.7126 3.90267 16.4538 3.90267 17.5277 5.04176C18.6017 6.18085 18.6017 8.02767 17.5277 9.16676L16.2314 10.5418M16.8778 9.85425L10.72 16.3855C9.10912 18.0941 6.49732 18.0941 4.88641 16.3855C3.27549 14.6769 3.27549 11.9066 4.88641 10.198L11.0441 3.66675"
                    stroke="#9CA3AF"
                    stroke-width="1.6"
                    stroke-linecap="round"
                    stroke-linejoin="round"
                  />
                  <path
                    d="M14.9332 7.79175L8.77551 14.323C8.23854 14.8925 7.36794 14.8926 6.83097 14.323C6.294 13.7535 6.294 12.83 6.83097 12.2605L12.9887 5.72925M12.3423 6.41676L13.6387 5.04176C14.7126 3.90267 16.4538 3.90267 17.5277 5.04176C18.6017 6.18085 18.6017 8.02767 17.5277 9.16676L16.2314 10.5418M16.8778 9.85425L10.72 16.3855C9.10912 18.0941 6.49732 18.0941 4.88641 16.3855C3.27549 14.6769 3.27549 11.9066 4.88641 10.198L11.0441 3.66675"
                    stroke="black"
                    stroke-opacity="0.2"
                    stroke-width="1.6"
                    stroke-linecap="round"
                    stroke-linejoin="round"
                  />
                  <path
                    d="M14.9332 7.79175L8.77551 14.323C8.23854 14.8925 7.36794 14.8926 6.83097 14.323C6.294 13.7535 6.294 12.83 6.83097 12.2605L12.9887 5.72925M12.3423 6.41676L13.6387 5.04176C14.7126 3.90267 16.4538 3.90267 17.5277 5.04176C18.6017 6.18085 18.6017 8.02767 17.5277 9.16676L16.2314 10.5418M16.8778 9.85425L10.72 16.3855C9.10912 18.0941 6.49732 18.0941 4.88641 16.3855C3.27549 14.6769 3.27549 11.9066 4.88641 10.198L11.0441 3.66675"
                    stroke="black"
                    stroke-opacity="0.2"
                    stroke-width="1.6"
                    stroke-linecap="round"
                    stroke-linejoin="round"
                  />
                </g>
              </g>
            </svg>